<svg width="20" height="20" viewBox="0 0 20 20" fill="none" xmlns="http://www.w3.org/2000/svg">
<path d="M16.1087 4.73332L10.8837 1.91665C10.3337 1.61665 9.66706 1.61665 9.11706 1.91665L3.89206 4.73332C3.50872 4.94165 3.27539 5.34165 3.27539 5.79998C3.27539 6.24998 3.50872 6.65832 3.89206 6.86665L9.11706 9.68332C9.39206 9.83332 9.70039 9.90832 10.0004 9.90832C10.3004 9.90832 10.6087 9.83332 10.8837 9.68332L16.1087 6.86665C16.4921 6.65832 16.7254 6.25832 16.7254 5.79998C16.7254 5.34165 16.4921 4.94165 16.1087 4.73332Z" fill="#2090E3"/>
<path d="M8.25817 10.6584L3.3915 8.22504C3.0165 8.04171 2.58317 8.05837 2.23317 8.27504C1.87484 8.50004 1.6665 8.87504 1.6665 9.29171V13.8834C1.6665 14.675 2.10817 15.3917 2.8165 15.75L7.67484 18.1834C7.8415 18.2667 8.02484 18.3084 8.20817 18.3084C8.42484 18.3084 8.6415 18.25 8.83317 18.1334C9.1915 17.9167 9.39984 17.5334 9.39984 17.1167V12.525C9.40817 11.725 8.9665 11.0084 8.25817 10.6584Z" fill="#2090E3"/>
<path d="M17.7668 8.27487C17.4084 8.05821 16.9751 8.03321 16.6084 8.22487L11.7501 10.6582C11.0418 11.0165 10.6001 11.7249 10.6001 12.5249V17.1165C10.6001 17.5332 10.8084 17.9165 11.1668 18.1332C11.3584 18.2499 11.5751 18.3082 11.7918 18.3082C11.9751 18.3082 12.1584 18.2665 12.3251 18.1832L17.1834 15.7499C17.8918 15.3915 18.3334 14.6832 18.3334 13.8832V9.29154C18.3334 8.87487 18.1251 8.49987 17.7668 8.27487Z" fill="#2090E3"/>
</svg>
