<svg width="20" height="20" viewBox="0 0 20 20" fill="none" xmlns="http://www.w3.org/2000/svg">
<path d="M10.7668 1.88333L16.1918 4.80833C16.8252 5.14999 16.8252 6.12499 16.1918 6.46666L10.7668 9.39166C10.2835 9.64999 9.71683 9.64999 9.2335 9.39166L3.8085 6.46666C3.17516 6.12499 3.17516 5.14999 3.8085 4.80833L9.2335 1.88333C9.71683 1.62499 10.2835 1.62499 10.7668 1.88333Z" stroke="#757575" stroke-width="1.25" stroke-linecap="round" stroke-linejoin="round"/>
<path d="M3.00817 8.44173L8.04984 10.9667C8.67484 11.2834 9.07484 11.9251 9.07484 12.6251V17.3917C9.07484 18.0834 8.34984 18.5251 7.73317 18.2167L2.6915 15.6917C2.0665 15.3751 1.6665 14.7334 1.6665 14.0334V9.26673C1.6665 8.57506 2.3915 8.1334 3.00817 8.44173Z" stroke="#757575" stroke-width="1.25" stroke-linecap="round" stroke-linejoin="round"/>
<path d="M16.9915 8.44173L11.9498 10.9667C11.3248 11.2834 10.9248 11.9251 10.9248 12.6251V17.3917C10.9248 18.0834 11.6498 18.5251 12.2665 18.2167L17.3081 15.6917C17.9331 15.3751 18.3331 14.7334 18.3331 14.0334V9.26673C18.3331 8.57506 17.6081 8.1334 16.9915 8.44173Z" stroke="#757575" stroke-width="1.25" stroke-linecap="round" stroke-linejoin="round"/>
</svg>
