<svg width="20" height="20" viewBox="0 0 20 20" fill="none" xmlns="http://www.w3.org/2000/svg">
<path d="M13.5335 1.66663H6.46683C4.16683 1.66663 3.3335 2.49996 3.3335 4.84163V15.1583C3.3335 17.5 4.16683 18.3333 6.46683 18.3333H13.5252C15.8335 18.3333 16.6668 17.5 16.6668 15.1583V4.84163C16.6668 2.49996 15.8335 1.66663 13.5335 1.66663ZM10.0002 16.0833C9.20016 16.0833 8.54183 15.425 8.54183 14.625C8.54183 13.825 9.20016 13.1666 10.0002 13.1666C10.8002 13.1666 11.4585 13.825 11.4585 14.625C11.4585 15.425 10.8002 16.0833 10.0002 16.0833ZM11.6668 5.20829H8.3335C7.99183 5.20829 7.7085 4.92496 7.7085 4.58329C7.7085 4.24163 7.99183 3.95829 8.3335 3.95829H11.6668C12.0085 3.95829 12.2918 4.24163 12.2918 4.58329C12.2918 4.92496 12.0085 5.20829 11.6668 5.20829Z" fill="#2090E3"/>
</svg>
