<svg width="20" height="20" viewBox="0 0 20 20" fill="none" xmlns="http://www.w3.org/2000/svg">
<path d="M16.6668 5.83329V14.1666C16.6668 17.5 15.8335 18.3333 12.5002 18.3333H7.50016C4.16683 18.3333 3.3335 17.5 3.3335 14.1666V5.83329C3.3335 2.49996 4.16683 1.66663 7.50016 1.66663H12.5002C15.8335 1.66663 16.6668 2.49996 16.6668 5.83329Z" stroke="#757575" stroke-width="1.25" stroke-linecap="round" stroke-linejoin="round"/>
<path d="M11.6668 4.58337H8.3335" stroke="#757575" stroke-width="1.25" stroke-linecap="round" stroke-linejoin="round"/>
<path d="M10.0002 15.9167C10.7135 15.9167 11.2918 15.3384 11.2918 14.625C11.2918 13.9117 10.7135 13.3334 10.0002 13.3334C9.2868 13.3334 8.7085 13.9117 8.7085 14.625C8.7085 15.3384 9.2868 15.9167 10.0002 15.9167Z" stroke="#757575" stroke-width="1.25" stroke-linecap="round" stroke-linejoin="round"/>
</svg>
