<svg width="20" height="20" viewBox="0 0 20 20" fill="none" xmlns="http://www.w3.org/2000/svg">
<path d="M14.6084 6.47496C14.55 6.46663 14.4917 6.46663 14.4334 6.47496C13.1417 6.43329 12.1167 5.37496 12.1167 4.07496C12.1167 2.74996 13.1917 1.66663 14.525 1.66663C15.85 1.66663 16.9334 2.74163 16.9334 4.07496C16.925 5.37496 15.9 6.43329 14.6084 6.47496Z" fill="#2090E3"/>
<path d="M17.3252 12.25C16.3918 12.875 15.0835 13.1083 13.8752 12.95C14.1918 12.2666 14.3585 11.5083 14.3668 10.7083C14.3668 9.87497 14.1835 9.0833 13.8335 8.39164C15.0668 8.22497 16.3752 8.4583 17.3168 9.0833C18.6335 9.94997 18.6335 11.375 17.3252 12.25Z" fill="#2090E3"/>
<path d="M5.36696 6.47496C5.42529 6.46663 5.48363 6.46663 5.54196 6.47496C6.83363 6.43329 7.85863 5.37496 7.85863 4.07496C7.85863 2.74163 6.78363 1.66663 5.45029 1.66663C4.12529 1.66663 3.05029 2.74163 3.05029 4.07496C3.05029 5.37496 4.07529 6.43329 5.36696 6.47496Z" fill="#2090E3"/>
<path d="M5.45843 10.7085C5.45843 11.5168 5.63343 12.2835 5.9501 12.9751C4.7751 13.1001 3.5501 12.8501 2.6501 12.2585C1.33343 11.3835 1.33343 9.95846 2.6501 9.08346C3.54176 8.48346 4.8001 8.24179 5.98343 8.37513C5.64176 9.07513 5.45843 9.86679 5.45843 10.7085Z" fill="#2090E3"/>
<path d="M10.1 13.225C10.0333 13.2167 9.95833 13.2167 9.88333 13.225C8.35 13.175 7.125 11.9167 7.125 10.3667C7.13333 8.78333 8.40833 7.5 10 7.5C11.5833 7.5 12.8667 8.78333 12.8667 10.3667C12.8583 11.9167 11.6417 13.175 10.1 13.225Z" fill="#2090E3"/>
<path d="M7.3915 14.95C6.13317 15.7916 6.13317 17.175 7.3915 18.0083C8.82484 18.9666 11.1748 18.9666 12.6082 18.0083C13.8665 17.1666 13.8665 15.7833 12.6082 14.95C11.1832 13.9916 8.83317 13.9916 7.3915 14.95Z" fill="#2090E3"/>
</svg>
