<svg width="20" height="20" viewBox="0 0 20 20" fill="none" xmlns="http://www.w3.org/2000/svg">
<path d="M14.9999 5.96663C14.9499 5.9583 14.8916 5.9583 14.8416 5.96663C13.6916 5.92496 12.7749 4.98329 12.7749 3.81663C12.7749 2.62496 13.7332 1.66663 14.9249 1.66663C16.1166 1.66663 17.0749 2.63329 17.0749 3.81663C17.0666 4.98329 16.1499 5.92496 14.9999 5.96663Z" stroke="#757575" stroke-width="1.25" stroke-linecap="round" stroke-linejoin="round"/>
<path d="M14.1417 12.0333C15.2834 12.225 16.5417 12.025 17.425 11.4333C18.6 10.65 18.6 9.36664 17.425 8.58331C16.5334 7.99164 15.2584 7.79163 14.1167 7.99163" stroke="#757575" stroke-width="1.25" stroke-linecap="round" stroke-linejoin="round"/>
<path d="M4.97442 5.96663C5.02442 5.9583 5.08275 5.9583 5.13275 5.96663C6.28275 5.92496 7.19941 4.98329 7.19941 3.81663C7.19941 2.62496 6.24108 1.66663 5.04942 1.66663C3.85775 1.66663 2.89941 2.63329 2.89941 3.81663C2.90775 4.98329 3.82442 5.92496 4.97442 5.96663Z" stroke="#757575" stroke-width="1.25" stroke-linecap="round" stroke-linejoin="round"/>
<path d="M5.83255 12.0333C4.69088 12.225 3.43255 12.025 2.54922 11.4333C1.37422 10.65 1.37422 9.36664 2.54922 8.58331C3.44089 7.99164 4.71588 7.79163 5.85755 7.99163" stroke="#757575" stroke-width="1.25" stroke-linecap="round" stroke-linejoin="round"/>
<path d="M9.9999 12.1916C9.9499 12.1833 9.89157 12.1833 9.84157 12.1916C8.69157 12.1499 7.7749 11.2083 7.7749 10.0416C7.7749 8.84994 8.73323 7.8916 9.9249 7.8916C11.1166 7.8916 12.0749 8.85827 12.0749 10.0416C12.0666 11.2083 11.1499 12.1583 9.9999 12.1916Z" stroke="#757575" stroke-width="1.25" stroke-linecap="round" stroke-linejoin="round"/>
<path d="M7.5751 14.8167C6.4001 15.6 6.4001 16.8833 7.5751 17.6667C8.90843 18.5583 11.0918 18.5583 12.4251 17.6667C13.6001 16.8833 13.6001 15.6 12.4251 14.8167C11.1001 13.9333 8.90843 13.9333 7.5751 14.8167Z" stroke="#757575" stroke-width="1.25" stroke-linecap="round" stroke-linejoin="round"/>
</svg>
