<svg width="20" height="20" viewBox="0 0 20 20" fill="none" xmlns="http://www.w3.org/2000/svg">
<path d="M6.03317 1.66675H4.44984C2.62484 1.66675 1.6665 2.62508 1.6665 4.44175V6.02508C1.6665 7.84175 2.62484 8.80008 4.4415 8.80008H6.02484C7.8415 8.80008 8.79984 7.84175 8.79984 6.02508V4.44175C8.80817 2.62508 7.84984 1.66675 6.03317 1.66675Z" fill="#2090E3"/>
<path d="M15.5585 1.66675H13.9752C12.1585 1.66675 11.2002 2.62508 11.2002 4.44175V6.02508C11.2002 7.84175 12.1585 8.80008 13.9752 8.80008H15.5585C17.3752 8.80008 18.3335 7.84175 18.3335 6.02508V4.44175C18.3335 2.62508 17.3752 1.66675 15.5585 1.66675Z" fill="#2090E3"/>
<path d="M15.5585 11.1917H13.9752C12.1585 11.1917 11.2002 12.15 11.2002 13.9667V15.55C11.2002 17.3667 12.1585 18.325 13.9752 18.325H15.5585C17.3752 18.325 18.3335 17.3667 18.3335 15.55V13.9667C18.3335 12.15 17.3752 11.1917 15.5585 11.1917Z" fill="#2090E3"/>
<path d="M6.03317 11.1917H4.44984C2.62484 11.1917 1.6665 12.15 1.6665 13.9667V15.55C1.6665 17.375 2.62484 18.3333 4.4415 18.3333H6.02484C7.8415 18.3333 8.79984 17.375 8.79984 15.5583V13.975C8.80817 12.15 7.84984 11.1917 6.03317 11.1917Z" fill="#2090E3"/>
</svg>
