<svg width="20" height="20" viewBox="0 0 20 20" fill="none" xmlns="http://www.w3.org/2000/svg">
<path d="M4.1665 8.33341H5.83317C7.49984 8.33341 8.33317 7.50008 8.33317 5.83341V4.16675C8.33317 2.50008 7.49984 1.66675 5.83317 1.66675H4.1665C2.49984 1.66675 1.6665 2.50008 1.6665 4.16675V5.83341C1.6665 7.50008 2.49984 8.33341 4.1665 8.33341Z" stroke="#757575" stroke-width="1.25" stroke-miterlimit="10" stroke-linecap="round" stroke-linejoin="round"/>
<path d="M14.1665 8.33341H15.8332C17.4998 8.33341 18.3332 7.50008 18.3332 5.83341V4.16675C18.3332 2.50008 17.4998 1.66675 15.8332 1.66675H14.1665C12.4998 1.66675 11.6665 2.50008 11.6665 4.16675V5.83341C11.6665 7.50008 12.4998 8.33341 14.1665 8.33341Z" stroke="#757575" stroke-width="1.25" stroke-miterlimit="10" stroke-linecap="round" stroke-linejoin="round"/>
<path d="M14.1665 18.3334H15.8332C17.4998 18.3334 18.3332 17.5001 18.3332 15.8334V14.1667C18.3332 12.5001 17.4998 11.6667 15.8332 11.6667H14.1665C12.4998 11.6667 11.6665 12.5001 11.6665 14.1667V15.8334C11.6665 17.5001 12.4998 18.3334 14.1665 18.3334Z" stroke="#757575" stroke-width="1.25" stroke-miterlimit="10" stroke-linecap="round" stroke-linejoin="round"/>
<path d="M4.1665 18.3334H5.83317C7.49984 18.3334 8.33317 17.5001 8.33317 15.8334V14.1667C8.33317 12.5001 7.49984 11.6667 5.83317 11.6667H4.1665C2.49984 11.6667 1.6665 12.5001 1.6665 14.1667V15.8334C1.6665 17.5001 2.49984 18.3334 4.1665 18.3334Z" stroke="#757575" stroke-width="1.25" stroke-miterlimit="10" stroke-linecap="round" stroke-linejoin="round"/>
</svg>
