<svg width="20" height="20" viewBox="0 0 20 20" fill="none" xmlns="http://www.w3.org/2000/svg">
<path d="M11.0415 10.4833V12.1333C11.0415 12.7083 10.5748 13.175 9.99984 13.175C9.42484 13.175 8.95817 12.7083 8.95817 12.1333V10.4833C8.65817 10.3 8.42484 10.0333 8.25817 9.71667H2.49984C2.0415 9.71667 1.6665 10.0917 1.6665 10.55V13.4917C1.6665 16.1667 3.83317 18.3333 6.50817 18.3333H13.4832C16.1665 18.3333 18.3332 16.1667 18.3332 13.4917V10.55C18.3332 10.0917 17.9582 9.71667 17.4998 9.71667H11.7415C11.5748 10.0333 11.3415 10.3 11.0415 10.4833Z" fill="#2090E3"/>
<path d="M13.4915 1.66663H6.50817C3.83317 1.66663 1.6665 3.83329 1.6665 6.50829V7.63329C1.6665 8.09163 2.0415 8.46663 2.49984 8.46663H8.05817C8.24984 7.36663 9.3415 6.58329 10.5332 6.89996C11.1998 7.07496 11.7415 7.61663 11.9165 8.28329C11.9332 8.34163 11.9332 8.40829 11.9415 8.46663H17.4998C17.9582 8.46663 18.3332 8.09163 18.3332 7.63329V6.50829C18.3332 3.83329 16.1665 1.66663 13.4915 1.66663Z" fill="#2090E3"/>
</svg>
