<svg width="20" height="20" viewBox="0 0 20 20" fill="none" xmlns="http://www.w3.org/2000/svg">
<path d="M18.2667 13.9583C17.9917 16.175 16.175 17.9916 13.9584 18.2666C12.6167 18.4333 11.3667 18.0666 10.3917 17.35C9.83338 16.9416 9.96671 16.075 10.6334 15.875C13.1417 15.1166 15.1167 13.1333 15.8834 10.625C16.0834 9.96662 16.95 9.83329 17.3584 10.3833C18.0667 11.3666 18.4334 12.6166 18.2667 13.9583Z" fill="#2090E3"/>
<path d="M8.32484 1.66663C4.64984 1.66663 1.6665 4.64996 1.6665 8.32496C1.6665 12 4.64984 14.9833 8.32484 14.9833C11.9998 14.9833 14.9832 12 14.9832 8.32496C14.9748 4.64996 11.9998 1.66663 8.32484 1.66663ZM7.5415 7.39163L9.54984 8.09163C10.2748 8.34996 10.6248 8.85829 10.6248 9.64163C10.6248 10.5416 9.90817 11.2833 9.03317 11.2833H8.95817V11.325C8.95817 11.6666 8.67484 11.95 8.33317 11.95C7.9915 11.95 7.70817 11.6666 7.70817 11.325V11.275C6.78317 11.2333 6.0415 10.4583 6.0415 9.49163C6.0415 9.14996 6.32484 8.86663 6.6665 8.86663C7.00817 8.86663 7.2915 9.14996 7.2915 9.49163C7.2915 9.79163 7.50817 10.0333 7.77484 10.0333H9.02484C9.2165 10.0333 9.3665 9.85829 9.3665 9.64163C9.3665 9.34996 9.3165 9.33329 9.12484 9.26663L7.1165 8.56663C6.39984 8.31663 6.0415 7.80829 6.0415 7.01663C6.0415 6.11663 6.75817 5.37496 7.63317 5.37496H7.70817V5.34163C7.70817 4.99996 7.9915 4.71663 8.33317 4.71663C8.67484 4.71663 8.95817 4.99996 8.95817 5.34163V5.39163C9.88317 5.43329 10.6248 6.20829 10.6248 7.17496C10.6248 7.51663 10.3415 7.79996 9.99984 7.79996C9.65817 7.79996 9.37484 7.51663 9.37484 7.17496C9.37484 6.87496 9.15817 6.63329 8.8915 6.63329H7.6415C7.44984 6.63329 7.29984 6.80829 7.29984 7.02496C7.2915 7.30829 7.3415 7.32496 7.5415 7.39163Z" fill="#2090E3"/>
</svg>
