<svg width="20" height="20" viewBox="0 0 20 20" fill="none" xmlns="http://www.w3.org/2000/svg">
<path d="M16.7498 7.68324C15.2415 7.68324 14.6248 6.61657 15.3748 5.30824C15.8082 4.54991 15.5498 3.58324 14.7915 3.14991L13.3498 2.32491C12.6915 1.93324 11.8415 2.16657 11.4498 2.82491L11.3582 2.98324C10.6082 4.29157 9.37484 4.29157 8.6165 2.98324L8.52484 2.82491C8.14984 2.16657 7.29984 1.93324 6.6415 2.32491L5.19984 3.14991C4.4415 3.58324 4.18317 4.55824 4.6165 5.31657C5.37484 6.61657 4.75817 7.68324 3.24984 7.68324C2.38317 7.68324 1.6665 8.39157 1.6665 9.26657V10.7332C1.6665 11.5999 2.37484 12.3166 3.24984 12.3166C4.75817 12.3166 5.37484 13.3832 4.6165 14.6916C4.18317 15.4499 4.4415 16.4166 5.19984 16.8499L6.6415 17.6749C7.29984 18.0666 8.14984 17.8332 8.5415 17.1749L8.63317 17.0166C9.38317 15.7082 10.6165 15.7082 11.3748 17.0166L11.4665 17.1749C11.8582 17.8332 12.7082 18.0666 13.3665 17.6749L14.8082 16.8499C15.5665 16.4166 15.8248 15.4416 15.3915 14.6916C14.6332 13.3832 15.2498 12.3166 16.7582 12.3166C17.6248 12.3166 18.3415 11.6082 18.3415 10.7332V9.26657C18.3332 8.39991 17.6248 7.68324 16.7498 7.68324ZM9.99984 12.7082C8.50817 12.7082 7.2915 11.4916 7.2915 9.99991C7.2915 8.50824 8.50817 7.29157 9.99984 7.29157C11.4915 7.29157 12.7082 8.50824 12.7082 9.99991C12.7082 11.4916 11.4915 12.7082 9.99984 12.7082Z" fill="#2090E3"/>
</svg>
