<svg width="20" height="20" viewBox="0 0 20 20" fill="none" xmlns="http://www.w3.org/2000/svg">
<path d="M16.0831 6.59999V10.8917C16.0831 13.4583 14.6165 14.5583 12.4165 14.5583H5.09147C4.71647 14.5583 4.35813 14.525 4.0248 14.45C3.81647 14.4167 3.61647 14.3584 3.43314 14.2917C2.18314 13.825 1.4248 12.7417 1.4248 10.8917V6.59999C1.4248 4.03332 2.89147 2.93335 5.09147 2.93335H12.4165C14.2831 2.93335 15.6248 3.72501 15.9831 5.53335C16.0415 5.86668 16.0831 6.20832 16.0831 6.59999Z" stroke="#757575" stroke-width="1.25" stroke-miterlimit="10" stroke-linecap="round" stroke-linejoin="round"/>
<path d="M18.5842 9.10009V13.3918C18.5842 15.9584 17.1176 17.0584 14.9176 17.0584H7.59254C6.97588 17.0584 6.41755 16.9751 5.93422 16.7918C4.94255 16.4251 4.26755 15.6668 4.02588 14.4501C4.35921 14.5251 4.71754 14.5584 5.09254 14.5584H12.4176C14.6176 14.5584 16.0842 13.4584 16.0842 10.8918V6.60009C16.0842 6.20842 16.0509 5.85845 15.9842 5.53345C17.5676 5.86678 18.5842 6.98342 18.5842 9.10009Z" stroke="#757575" stroke-width="1.25" stroke-miterlimit="10" stroke-linecap="round" stroke-linejoin="round"/>
<path d="M8.74884 10.95C9.96387 10.95 10.9489 9.96497 10.9489 8.74994C10.9489 7.53491 9.96387 6.54993 8.74884 6.54993C7.53381 6.54993 6.54883 7.53491 6.54883 8.74994C6.54883 9.96497 7.53381 10.95 8.74884 10.95Z" stroke="#757575" stroke-width="1.25" stroke-miterlimit="10" stroke-linecap="round" stroke-linejoin="round"/>
<path d="M3.9834 6.91675V10.5834" stroke="#757575" stroke-width="1.25" stroke-miterlimit="10" stroke-linecap="round" stroke-linejoin="round"/>
<path d="M13.5181 6.91687V10.5836" stroke="#757575" stroke-width="1.25" stroke-miterlimit="10" stroke-linecap="round" stroke-linejoin="round"/>
</svg>
