<svg width="114" height="114" viewBox="0 0 114 114" fill="none" xmlns="http://www.w3.org/2000/svg">
<g opacity="0.1">
<path d="M56.7666 0C88.0962 0 113.533 25.4371 113.533 56.7666C113.533 88.0962 88.0962 113.533 56.7666 113.533C25.4371 113.533 0 88.0962 0 56.7666C0 25.4371 25.4371 0 56.7666 0Z" fill="#0099FF"/>
</g>
<g opacity="0.2">
<path d="M56.7666 6.93311C84.2697 6.93311 106.6 29.2635 106.6 56.7666C106.6 84.2697 84.2697 106.6 56.7666 106.6C29.2635 106.6 6.93311 84.2697 6.93311 56.7666C6.93311 29.2635 29.2635 6.93311 56.7666 6.93311Z" fill="#0099FF"/>
</g>
<path d="M56.7667 16.4668C79.0082 16.4668 97.0665 34.5252 97.0665 56.7667C97.0665 79.0082 79.0082 97.0665 56.7667 97.0665C34.5252 97.0665 16.4668 79.0082 16.4668 56.7667C16.4668 34.5252 34.5252 16.4668 56.7667 16.4668Z" fill="#0099FF"/>
<path d="M35.6932 61.8726C40.573 65.7868 50.3332 73.6148 50.3332 73.6148C50.3332 73.6148 68.2676 53.6243 77.2347 43.6293" stroke="white" stroke-width="10.4465" stroke-linecap="round" stroke-linejoin="round"/>
</svg>
